<svg xmlns="http://www.w3.org/2000/svg" viewBox="0 0 32 32" width="32" height="32">
  <!-- Background circle -->
  <circle cx="16" cy="16" r="15" fill="#1e40af" stroke="#1e3a8a" stroke-width="1"/>
  
  <!-- Solar panels (blue) -->
  <rect x="6" y="20" width="4" height="6" fill="#3b82f6" stroke="#1e40af" stroke-width="0.5"/>
  <rect x="11" y="20" width="4" height="6" fill="#3b82f6" stroke="#1e40af" stroke-width="0.5"/>
  <rect x="16" y="20" width="4" height="6" fill="#3b82f6" stroke="#1e40af" stroke-width="0.5"/>
  <rect x="21" y="20" width="4" height="6" fill="#3b82f6" stroke="#1e40af" stroke-width="0.5"/>
  
  <!-- Panel grid lines -->
  <line x1="8" y1="20" x2="8" y2="26" stroke="#1e40af" stroke-width="0.3"/>
  <line x1="10" y1="20" x2="10" y2="26" stroke="#1e40af" stroke-width="0.3"/>
  <line x1="13" y1="20" x2="13" y2="26" stroke="#1e40af" stroke-width="0.3"/>
  <line x1="15" y1="20" x2="15" y2="26" stroke="#1e40af" stroke-width="0.3"/>
  <line x1="18" y1="20" x2="18" y2="26" stroke="#1e40af" stroke-width="0.3"/>
  <line x1="20" y1="20" x2="20" y2="26" stroke="#1e40af" stroke-width="0.3"/>
  <line x1="23" y1="20" x2="23" y2="26" stroke="#1e40af" stroke-width="0.3"/>
  <line x1="25" y1="20" x2="25" y2="26" stroke="#1e40af" stroke-width="0.3"/>
  
  <!-- Sun (yellow) -->
  <circle cx="16" cy="10" r="4" fill="#fbbf24" stroke="#f59e0b" stroke-width="0.5"/>
  
  <!-- Sun rays -->
  <line x1="16" y1="2" x2="16" y2="6" stroke="#fbbf24" stroke-width="1"/>
  <line x1="16" y1="14" x2="16" y2="18" stroke="#fbbf24" stroke-width="1"/>
  <line x1="8" y1="8" x2="11" y2="11" stroke="#fbbf24" stroke-width="1"/>
  <line x1="21" y1="8" x2="24" y2="11" stroke="#fbbf24" stroke-width="1"/>
  <line x1="8" y1="12" x2="11" y2="9" stroke="#fbbf24" stroke-width="1"/>
  <line x1="21" y1="12" x2="24" y2="9" stroke="#fbbf24" stroke-width="1"/>
  <line x1="2" y1="16" x2="6" y2="16" stroke="#fbbf24" stroke-width="1"/>
  <line x1="26" y1="16" x2="30" y2="16" stroke="#fbbf24" stroke-width="1"/>
</svg>
